<?xml version="1.0" encoding="UTF-8" standalone="no"?>
<svg width="500" height="95" viewBox="0 0 100 19" xmlns="http://www.w3.org/2000/svg"><title>51F5703C-EA8D-41B6-8EEF-A9046C389896</title><g fill="#009" fill-rule="evenodd"><path d="M31.996 9.408H28.02V4.34h3.975c1.525 0 2.45.778 2.45 2.534 0 1.756-.925 2.534-2.45 2.534zm.025-8.154h-7.3v17.41h3.3v-6.221h4.075c3.425 0 5.65-2.333 5.65-5.57 0-3.411-2.1-5.619-5.725-5.619zM44.83 15.93c-1.75 0-3.174-1.505-3.174-3.688 0-2.232 1.424-3.788 3.174-3.788s3.175 1.556 3.175 3.788c0 2.183-1.425 3.688-3.175 3.688m0-10.511c-3.574 0-6.474 2.935-6.474 6.798 0 3.864 2.9 6.749 6.474 6.749 3.575 0 6.5-2.885 6.5-6.749 0-3.863-2.925-6.798-6.5-6.798M59.09 15.955c-1.825 0-3.3-1.68-3.3-3.713 0-2.082 1.475-3.788 3.3-3.788 1.2 0 2.225.753 2.675 1.63h3.525c-.75-2.91-3.1-4.665-6.2-4.665-3.875 0-6.65 3.06-6.65 6.798s2.775 6.749 6.65 6.749c3.125 0 5.475-1.731 6.225-4.666H61.79c-.425.903-1.475 1.655-2.7 1.655M79.088 5.745h-4.55l-4.225 4.691V0h-3.3v18.665h3.3v-3.713l1.65-1.731 3.2 5.444h4.2l-5.075-7.878z"/><path d="M82.488 10.787c.475-1.505 1.675-2.458 3.175-2.458 1.575 0 2.825.953 3.225 2.458h-6.4zm3.2-5.368c-3.625 0-6.6 3.06-6.6 6.798s2.975 6.749 6.6 6.749c3.2 0 5.474-1.781 6.225-4.416h-3.525c-.55 1.029-1.625 1.506-2.725 1.506-1.55 0-2.8-.979-3.225-2.56h9.724c.475-5.117-2.674-8.077-6.474-8.077zM97.513 13.246V8.68h2.324V5.745h-2.324V2.458h-3.3v3.287h-1.55V8.68h1.55v4.54c0 3.538 2 5.821 5.774 5.42v-3.01c-1.65.1-2.474-.578-2.474-2.384M10.83 8.928h1.275V1.176H10.83zM15.585 4.187c0-1.16.855-2.032 2.025-2.032 1.23 0 1.89.873 1.89 2.062v4.712h1.26V4.262c0-1.927-1.08-3.282-2.97-3.282-.93 0-1.726.392-2.25 1.04v-.844h-1.23V8.93h1.275V4.187zM2.31 15.855v-3.703h1.755v-1.22H2.31V9.278H1.05v1.656H0v1.219h1.05v3.703c0 1.972 1.245 3.04 3.045 2.83V17.51c-.945.06-1.785-.286-1.785-1.656M9.015 10.737c-.915 0-1.68.376-2.205.979v-4.23H5.535v11.199H6.81v-4.742c0-1.159.855-2.032 2.025-2.032 1.245 0 1.89.858 1.89 2.062v4.712h1.26v-4.666c0-1.927-1.08-3.282-2.97-3.282M14.94 14.004c.33-1.325 1.455-2.108 2.52-2.108 1.125 0 2.175.843 2.49 2.108h-5.01zm2.52-3.267c-2.145 0-3.885 1.836-3.885 4.08 0 2.272 1.74 4.049 3.96 4.049 1.785 0 3.105-.934 3.645-2.59h-1.35c-.42.903-1.2 1.43-2.295 1.43-1.275 0-2.505-.948-2.67-2.559h6.495c.015-2.754-1.905-4.41-3.9-4.41z"/></g></svg>