<svg width="130" height="25" xmlns="http://www.w3.org/2000/svg">
  <path d="M102.819 7.57h-5.917l-5.49 6.182V0h-4.287v24.589h4.288v-4.89l2.15-2.28 4.16 7.17h5.466l-6.6-10.379 6.23-6.64zm-88.743 4.195h1.653V1.551h-1.653v10.214zm-2.358 2.386c-1.19 0-2.184.494-2.866 1.293V9.861H7.2v14.763h1.652V18.37c0-1.528 1.11-2.68 2.635-2.68 1.618 0 2.462 1.128 2.462 2.715v6.206h1.64v-6.147c-.01-2.527-1.41-4.314-3.87-4.314zm8.54-8.639c0-1.528 1.11-2.68 2.636-2.68 1.594 0 2.461 1.152 2.461 2.716v6.206h1.641V5.618c0-2.539-1.398-4.325-3.86-4.325-1.213 0-2.242.517-2.924 1.363V1.54h-1.606v10.214h1.653V5.512zM3.006 20.886v-4.878H5.28v-1.61H3.005v-2.174H1.364v2.186H0v1.61h1.364v4.878c0 2.598 1.618 4.008 3.964 3.726v-1.552c-1.237.083-2.323-.376-2.323-2.186zm19.692-6.735c-2.785 0-5.05 2.422-5.05 5.372 0 2.997 2.265 5.336 5.154 5.336 2.323 0 4.033-1.234 4.738-3.409h-1.756c-.543 1.188-1.56 1.881-2.982 1.881-1.652 0-3.259-1.246-3.467-3.373h8.448c.012-3.632-2.485-5.807-5.085-5.807zm-3.27 4.302c.427-1.74 1.895-2.774 3.282-2.774 1.467 0 2.831 1.117 3.236 2.774h-6.518zM58.28 7.134c-4.646 0-8.413 3.867-8.413 8.957 0 5.09 3.767 8.897 8.413 8.897 4.646 0 8.448-3.796 8.448-8.897 0-5.101-3.79-8.957-8.448-8.957zm0 13.858c-2.277 0-4.126-1.986-4.126-4.854 0-2.939 1.85-4.996 4.126-4.996 2.276 0 4.126 2.046 4.126 4.996.011 2.868-1.85 4.854-4.126 4.854zm18.548.035c-2.369 0-4.287-2.21-4.287-4.89 0-2.738 1.918-4.995 4.287-4.995 1.56 0 2.89.988 3.479 2.151h4.588c-.971-3.831-4.034-6.147-8.055-6.147-5.039 0-8.645 4.032-8.645 8.956 0 4.925 3.606 8.898 8.645 8.898 4.068 0 7.119-2.28 8.09-6.147H80.34c-.554 1.175-1.93 2.174-3.513 2.174zm49.948-3.573v-6.018h3.028V7.57h-3.028V3.244h-4.288v4.325h-2.01v3.867h2.01v5.983c0 4.666 2.6 7.663 7.512 7.134v-3.96c-2.15.129-3.224-.765-3.224-3.139zM41.626 1.657H32.14V24.6h4.287v-8.192h5.293c4.45 0 7.35-3.08 7.35-7.334 0-4.514-2.727-7.417-7.442-7.417zM41.605 12.4h-5.166V5.724h5.166c1.987 0 3.19 1.023 3.19 3.338 0 2.316-1.214 3.338-3.19 3.338zm69.801-5.266c-4.715 0-8.575 4.032-8.575 8.957 0 4.925 3.872 8.897 8.575 8.897 4.16 0 7.12-2.35 8.09-5.818h-4.588c-.716 1.352-2.115 1.987-3.548 1.987-2.01 0-3.64-1.293-4.195-3.374h12.643c.636-6.746-3.467-10.649-8.402-10.649zm-4.16 7.076c.613-1.986 2.173-3.244 4.126-3.244 2.045 0 3.675 1.258 4.195 3.244h-8.32z" fill="#FFF" fill-rule="nonzero"/>
</svg>
